<?xml version="1.0" encoding="UTF-8"?>
<svg version="1.1" xmlns="http://www.w3.org/2000/svg" width="200" height="200">
<path d="M0 0 C66 0 132 0 200 0 C200 66 200 132 200 200 C134 200 68 200 0 200 C0 134 0 68 0 0 Z " fill="#138582" transform="translate(0,0)"/>
<path d="M0 0 C1.65 1.65 3.3 3.3 5 5 C8.80528878 8.60923175 11.72014871 10.31884916 17.0625 10.375 C19.77048698 10.23654653 22.32283254 9.94619458 25 9.5 C30.3046911 8.61588482 35.8684981 8.28949937 41 10 C41.01401855 11.36596313 41.01401855 11.36596313 41.02832031 12.75952148 C41.04047948 36.7133124 41.04047948 36.7133124 46 60 C46.54140625 61.7015625 46.54140625 61.7015625 47.09375 63.4375 C49.65631026 70.77888884 53.22985739 76.86753958 57.62109375 83.22265625 C59 86 59 86 58.45703125 88.08984375 C56.78148657 90.28646936 55.05171649 92.40498083 53.25 94.5 C46.92766964 102.35676455 42.00373215 110.13814581 42.58984375 120.5078125 C43.17662605 124.07321354 44.30230243 126.81681706 46 130 C52.23704903 129.29241647 52.23704903 129.29241647 58 127 C58.96223454 124.60876331 58.96223454 124.60876331 59.3125 121.8125 C60.78747359 115.45428051 63.59637761 112.49646155 69 109 C71.83648391 107.35300934 74.49346421 105.81482164 77.875 106.23046875 C80.62780089 107.22734701 82.81531782 108.68821917 85.25 110.3125 C91.87533474 114.63373852 91.87533474 114.63373852 99 118 C103.86941305 116.84257271 107.97001676 114.50270207 112.25 112 C112.87390625 111.64421875 113.4978125 111.2884375 114.140625 110.921875 C116.69678644 109.44547141 118.90361651 108.09638349 121 106 C127.24985876 106.36763875 133.1701592 109.74701646 137.375 114.25 C139.48915525 116.87155252 140.35344684 118.88606267 140.9375 122.1875 C142.06815878 126.32837051 142.06815878 126.32837051 145.3125 128.5 C148.62510307 129.84749956 150.50711462 130.42338005 154 130 C157.39787865 123.48739926 158.19593011 117.6413478 156.34375 110.453125 C154.03579174 104.04655121 150.38731928 99.14138978 146 94 C145.0207055 92.81260542 144.04152143 91.62511974 143.0625 90.4375 C142.381875 89.633125 141.70125 88.82875 141 88 C142.09694868 84.97312556 143.4089173 82.18706674 144.98828125 79.390625 C152.84070865 65.4647302 157.96223415 51.39176886 158.28125 35.23046875 C158.31900262 33.75065084 158.35676326 32.27083314 158.39453125 30.79101562 C158.44839316 28.47569463 158.50060571 26.16034226 158.55224609 23.8449707 C158.60379461 21.5983538 158.66105645 19.35193488 158.71875 17.10546875 C158.73232544 16.40761765 158.74590088 15.70976654 158.7598877 14.99076843 C158.88705499 10.11294501 158.88705499 10.11294501 160 9 C164.33573729 8.72238217 168.65410867 8.77091211 172.9375 9.5 C178.89442686 10.47255949 185.36579413 11.28029237 190.875 8.375 C194.23956923 5.81792738 196.42949668 3.32653371 199 0 C199.33 0 199.66 0 200 0 C200 45.87 200 91.74 200 139 C134 139 68 139 0 139 C0 93.13 0 47.26 0 0 Z " fill="#FCFEFE" transform="translate(0,61)"/>
<path d="M0 0 C66 0 132 0 200 0 C200 19.14 200 38.28 200 58 C195.05 55.36 190.1 52.72 185 50 C181.61270352 48.32204487 178.23268915 46.66706887 174.8125 45.0625 C174.00748047 44.67771484 173.20246094 44.29292969 172.37304688 43.89648438 C171.59638672 43.52974609 170.81972656 43.16300781 170.01953125 42.78515625 C169.33995361 42.46426025 168.66037598 42.14336426 167.96020508 41.81274414 C162.78784082 39.66816815 157.52458495 39.16453824 152 40 C148.74623006 41.37106031 145.7305902 42.93982194 142.6640625 44.6875 C138.68246781 46.64910677 136.35856742 46.12100263 132.21484375 44.72265625 C130.78649269 44.175938 129.36076471 43.62232599 127.9375 43.0625 C126.50923826 42.51139811 125.08085739 41.96060487 123.65234375 41.41015625 C122.44707031 40.94480469 121.24179688 40.47945312 120 40 C118.515 39.505 118.515 39.505 117 39 C117.04640625 37.97519531 117.0928125 36.95039062 117.140625 35.89453125 C117.17816011 34.53388344 117.21455841 33.17320395 117.25 31.8125 C117.28351563 31.13896484 117.31703125 30.46542969 117.3515625 29.77148438 C117.42310802 26.10477624 117.11330084 24.1754411 115.10546875 21.06640625 C113.19522752 18.9541845 113.19522752 18.9541845 111.0625 18.125 C108.66775645 16.81877624 108.10781246 15.72578118 106.6875 13.4375 C104.72291655 10.60442691 103.9994081 9.99973197 100.6875 8.5 C95.54658589 9.1970731 94.01041071 11.76768544 90.86328125 15.703125 C88.82861555 18.21126636 86.56694063 20.05534801 84 22 C82.46733418 25.06533164 82.89723529 28.26754272 82.9375 31.625 C82.94201172 32.33140625 82.94652344 33.0378125 82.95117188 33.765625 C82.96296125 35.51045275 82.98089676 37.255237 83 39 C82.16597656 39.24234375 81.33195312 39.4846875 80.47265625 39.734375 C75.10313888 41.33354398 70.10211969 42.84652596 65.1875 45.5625 C63.05859375 46.57421875 63.05859375 46.57421875 61 47 C57.91018358 45.86164658 55.57004112 44.02298137 53 42 C47.14582819 38.84775364 40.71928841 39.36081279 34.4375 41 C27.62553123 43.23534278 21.32033532 46.68713313 14.97314453 49.97900391 C12.01469351 51.50984308 9.0397575 53.00604838 6.0625 54.5 C4.62583984 55.22703125 4.62583984 55.22703125 3.16015625 55.96875 C1 57 1 57 0 57 C0 38.19 0 19.38 0 0 Z " fill="#FCFEFE" transform="translate(0,0)"/>
<path d="M0 0 C1.08667969 0.061875 2.17335937 0.12375 3.29296875 0.1875 C6.44581791 0.67456084 8.35937991 1.19302277 11 3 C13.20063194 6.37923126 14.80219916 9.77815572 16.38671875 13.47265625 C19.0965892 19.39762723 22.61246802 23.78452918 28.4375 26.75 C31 29 31 29 31.51171875 31.2734375 C32.23088009 49.37646425 25.20125359 69.57590363 13 83 C-1.43266004 98.61129022 -1.43266004 98.61129022 -8.9375 99.25 C-13.61374781 97.34132742 -17.15884149 94.22657315 -21 91 C-21.83789062 90.35160156 -22.67578125 89.70320313 -23.5390625 89.03515625 C-37.13001037 77.79565809 -44.96754474 58.12766981 -47 41 C-47.2165625 39.42025391 -47.2165625 39.42025391 -47.4375 37.80859375 C-47.69175402 34.63439117 -47.74225562 32.100275 -47 29 C-45.00976254 26.79400671 -42.94333043 25.37877695 -40.453125 23.765625 C-34.80077497 19.69737307 -31.45534918 13.51957059 -29.1875 7.0625 C-28.10504064 4.53079752 -27.44560878 3.29272209 -25.1328125 1.7734375 C-17.22168181 -1.07670049 -8.27251615 -0.53384118 0 0 Z " fill="#128583" transform="translate(108,57)"/>
<path d="M0 0 C1.65 0.33 3.3 0.66 5 1 C5 12.55 5 24.1 5 36 C-0.28 36.99 -5.56 37.98 -11 39 C-15.50976669 40.53667367 -15.50976669 40.53667367 -19.9609375 42.23046875 C-22 43 -22 43 -24 43 C-24.0825 44.155 -24.165 45.31 -24.25 46.5 C-25.34581603 54.89632011 -29.6535786 60.60910722 -36 66 C-40.25806452 69 -40.25806452 69 -44 69 C-43.79387065 82.51924199 -43.18559152 95.07557213 -39 108 C-38.6390625 109.13695313 -38.278125 110.27390625 -37.90625 111.4453125 C-31.62360586 129.40178866 -18.02853123 145.34437193 -1.30859375 154.46875 C1.12424562 155.83936373 3.08470818 156.96442415 5 159 C5.7392007 162.45654412 5.55611825 165.52597733 5 169 C-2.05198313 167.93964746 -8.48410995 164.13303721 -13.875 159.5625 C-15.87090825 157.77168285 -15.87090825 157.77168285 -18.3125 158 C-25.02698995 160.49841487 -29.91058313 162.80745446 -34 169 C-34.46903732 170.53236626 -34.90529009 172.07505728 -35.3125 173.625 C-36.11273288 176.3320735 -36.60815623 177.67074834 -38.78515625 179.5 C-41.8476697 181.14860537 -44.33634792 181.95575653 -47.8125 182.1875 C-50.52332736 180.715908 -51.47314625 179.09373657 -52.484375 176.20703125 C-54.4421719 167.82706724 -53.01136735 161.49349582 -48.9296875 154.00390625 C-46.23031488 149.80184644 -43.14478199 146.02947493 -39.85546875 142.27734375 C-37.82191594 140.05586621 -37.82191594 140.05586621 -37 137 C-38.00956834 135.12755399 -38.00956834 135.12755399 -39.5625 133.1875 C-48.86142323 119.85400916 -54.21887305 102.4208616 -54.09765625 86.1953125 C-54.0962413 85.4713327 -54.09482635 84.74735291 -54.09336853 84.00143433 C-54.08781075 81.70924593 -54.07526633 79.41715843 -54.0625 77.125 C-54.05747953 75.56250142 -54.05291759 74.00000129 -54.04882812 72.4375 C-54.03785519 68.62496165 -54.0206201 64.81249788 -54 61 C-56.04159095 60.9727384 -58.08328963 60.95348655 -60.125 60.9375 C-61.26195312 60.92589844 -62.39890625 60.91429687 -63.5703125 60.90234375 C-66.81863989 60.99483599 -69.81212087 61.39731212 -73 62 C-78.59561983 62.69287456 -82.69339968 62.71888829 -87.375 59.3125 C-90.29441662 56.7898398 -93.02727528 54.34505497 -95 51 C-95.0390625 48.58984375 -95.0390625 48.58984375 -94 46 C-91.57958583 44.44728148 -89.41268164 43.28442722 -86.8125 42.125 C-85.34996776 41.43812279 -83.88773371 40.75061034 -82.42578125 40.0625 C-81.68537598 39.72089844 -80.9449707 39.37929688 -80.18212891 39.02734375 C-77.50856705 37.76863394 -74.89423656 36.41163623 -72.27490234 35.04467773 C-64.24704136 30.88498691 -56.21928219 27.46598435 -47 29 C-42.7976205 30.66486021 -38.79640398 32.73477091 -35.09765625 35.33984375 C-32.84413181 36.28345232 -32.84413181 36.28345232 -30.046875 34.91796875 C-28.95890625 34.34691406 -27.8709375 33.77585938 -26.75 33.1875 C-21.62167988 30.64935735 -17.69491626 29.22333005 -12 29 C-12.165 28.195625 -12.33 27.39125 -12.5 26.5625 C-14.04175279 15.57751137 -14.04175279 15.57751137 -10.8125 10.6875 C-8.30224546 8.28881233 -5.72198473 6.14893531 -3 4 C-1.23676495 1.87396815 -1.23676495 1.87396815 0 0 Z " fill="#155756" transform="translate(95,10)"/>
<path d="M0 0 C2.94470283 2.25692622 3.36873565 4.05586582 4.3203125 7.60546875 C5.66515678 12.1504935 6.97570043 15.21392011 10.2578125 18.73046875 C10.2578125 19.39046875 10.2578125 20.05046875 10.2578125 20.73046875 C10.83015625 21.01664063 11.4025 21.3028125 11.9921875 21.59765625 C15.4140625 23.30859375 18.8359375 25.01953125 22.2578125 26.73046875 C23.04292265 54.33413634 17.88578779 77.59047287 -1.33398438 98.37402344 C-6.29939202 103.52521164 -11.82275626 107.71068307 -17.7421875 111.73046875 C-18.43570313 112.21773438 -19.12921875 112.705 -19.84375 113.20703125 C-22.61031232 114.99859363 -24.29704391 115.76675763 -27.6171875 115.49609375 C-42.03633755 111.96340199 -55.83145985 96.12305021 -63.38671875 84.1171875 C-67.28708085 77.2940224 -70.24336125 70.17378098 -72.7421875 62.73046875 C-73.06445312 61.77140625 -73.38671875 60.81234375 -73.71875 59.82421875 C-76.75307801 49.04810059 -76.01931132 37.81968491 -75.7421875 26.73046875 C-75.21399414 26.4873999 -74.68580078 26.24433105 -74.14160156 25.99389648 C-67.8668656 23.00226894 -63.52055431 19.69495213 -59.7421875 13.73046875 C-59.11097356 11.49877092 -58.5499207 9.24622477 -58.0546875 6.98046875 C-56.97046049 2.74257686 -56.49201391 1.20878939 -52.75390625 -1.17578125 C-49.43296533 -2.44653061 -46.19979586 -3.44878583 -42.7421875 -4.26953125 C-42.11554199 -4.44476318 -41.48889648 -4.61999512 -40.84326172 -4.80053711 C-27.56069562 -7.76542317 -12.19738543 -5.6469377 0 0 Z M-38.80859375 4.91796875 C-41.73840937 5.41894486 -43.36486319 5.92729069 -45.7421875 7.73046875 C-47.90199342 11.13931906 -49.55339483 14.58363999 -51.1640625 18.2734375 C-53.84660969 24.14980943 -57.02490071 27.7961701 -62.6171875 30.91796875 C-65.01976823 32.56044097 -65.6462075 33.30061546 -66.2890625 36.1796875 C-66.77595408 54.41377732 -60.08223468 72.59287689 -48.7421875 86.73046875 C-47.98035156 87.70113281 -47.21851562 88.67179687 -46.43359375 89.671875 C-43.71436194 92.9099346 -40.65247415 95.47829009 -37.3046875 98.04296875 C-36.75748047 98.48447266 -36.21027344 98.92597656 -35.64648438 99.38085938 C-32.07685797 102.13939907 -29.28947624 103.66876877 -24.7421875 103.73046875 C-9.27400688 97.07555383 1.44279118 80.32218675 7.62890625 65.4296875 C9.90178053 59.01069091 11.43673325 52.48785657 12.2578125 45.73046875 C12.40089844 44.704375 12.54398437 43.67828125 12.69140625 42.62109375 C12.95020599 39.41994009 12.9972171 36.8594126 12.2578125 33.73046875 C10.26847233 31.52106882 8.20265814 30.11022724 5.7109375 28.49609375 C0.05561104 24.42569954 -3.28917057 18.27553054 -5.4921875 11.79296875 C-6.63599369 9.10668534 -7.29527354 7.99276965 -9.83203125 6.50390625 C-19.14580262 3.50669261 -29.18863466 4.32974195 -38.80859375 4.91796875 Z " fill="#F1FAFA" transform="translate(126.7421875,52.26953125)"/>
<path d="M0 0 C0.33 32.34 0.66 64.68 1 98 C-3.74716488 97.05056702 -4.99131713 96.57227975 -8.5 93.6875 C-9.2321875 93.09324219 -9.964375 92.49898438 -10.71875 91.88671875 C-11.4715625 91.26410156 -12.224375 90.64148438 -13 90 C-13.83917969 89.35160156 -14.67835937 88.70320313 -15.54296875 88.03515625 C-29.12788822 76.78278257 -36.96681124 57.13385108 -39 40 C-39.2165625 38.42025391 -39.2165625 38.42025391 -39.4375 36.80859375 C-39.69175402 33.63439117 -39.74225562 31.100275 -39 28 C-37.00976254 25.79400671 -34.94333043 24.37877695 -32.453125 22.765625 C-26.19031658 18.25799856 -22.58840942 10.99734744 -20.21484375 3.8125 C-16.23854017 -2.11999152 -5.33711151 0 0 0 Z " fill="#115655" transform="translate(100,58)"/>
<path d="M0 0 C0.33 0 0.66 0 1 0 C1.82555811 34.69566704 1.82555811 34.69566704 -3 49 C-3.33 49 -3.66 49 -4 49 C-3.59081298 43.02371582 -3.06371166 37.14804304 -2 31.25 C-0.30534013 20.94292692 -0.31346404 10.42204218 0 0 Z " fill="#2B827F" transform="translate(158,72)"/>
<path d="M0 0 C0.33 0 0.66 0 1 0 C1.02498214 4.78311801 1.04299163 9.56619685 1.05493164 14.34936523 C1.05991672 15.97176781 1.0667072 17.594166 1.07543945 19.21655273 C1.20635421 44.19046868 1.20635421 44.19046868 -2 49 C-2.66 49 -3.32 49 -4 49 C-3.79141357 48.04802734 -3.58282715 47.09605469 -3.36791992 46.11523438 C-1.22495289 35.86194753 -0.4742222 25.95493294 -0.3125 15.5 C-0.27919784 13.98304603 -0.24469722 12.46611788 -0.20898438 10.94921875 C-0.12559361 7.29967029 -0.05811567 3.65004918 0 0 Z " fill="#BAE6E5" transform="translate(159,71)"/>
<path d="M0 0 C0.33 0 0.66 0 1 0 C1.61898212 9.00962861 1.61898212 9.00962861 -0.5625 12.5 C-5.43774046 15.50014797 -10.33042523 16.39555173 -16 16 C-16.66 15.67 -17.32 15.34 -18 15 C-17.67 14.01 -17.34 13.02 -17 12 C-16.34 12.66 -15.68 13.32 -15 14 C-10.7033306 13.67572306 -6.79436258 13.07756902 -3 11 C-1.74984645 8.38861714 -1.74984645 8.38861714 -1.1875 5.375 C-0.95417969 4.37210938 -0.72085938 3.36921875 -0.48046875 2.3359375 C-0.24263672 1.17964844 -0.24263672 1.17964844 0 0 Z " fill="#DBEFEF" transform="translate(61,177)"/>
<path d="M0 0 C2.25 0 2.25 0 5 1 C8.37538738 5.48526052 9.59299853 10.77263413 10.5078125 16.21484375 C10.67023438 16.80394531 10.83265625 17.39304687 11 18 C11.66 18.33 12.32 18.66 13 19 C12.01 19 11.02 19 10 19 C7.92065308 15.11384193 5.99899941 11.43886111 5 7.125 C4.32262754 3.89915714 4.32262754 3.89915714 1.875 2.5625 C1.25625 2.376875 0.6375 2.19125 0 2 C0 1.34 0 0.68 0 0 Z " fill="#2D8481" transform="translate(124,50)"/>
<path d="M0 0 C1.98 0.99 1.98 0.99 4 2 C3.98839844 2.83144531 3.97679688 3.66289062 3.96484375 4.51953125 C3.95582031 5.60621094 3.94679688 6.69289063 3.9375 7.8125 C3.92589844 8.89144531 3.91429688 9.97039063 3.90234375 11.08203125 C3.86375234 14.06512169 3.86375234 14.06512169 5 17 C6.98 17.33 8.96 17.66 11 18 C11.33 18.99 11.66 19.98 12 21 C8.37 20.01 4.74 19.02 1 18 C1.01160156 16.95199219 1.02320312 15.90398438 1.03515625 14.82421875 C1.04453655 13.44531428 1.0536365 12.06640789 1.0625 10.6875 C1.07087891 9.99720703 1.07925781 9.30691406 1.08789062 8.59570312 C1.10307906 5.4516975 1.00193327 3.00579981 0 0 Z " fill="#D2F2F1" transform="translate(116,21)"/>
<path d="M0 0 C0.33 0 0.66 0 1 0 C1.35699374 18.28601253 1.35699374 18.28601253 -1 23 C-1.66 23 -2.32 23 -3 23 C-3 24.32 -3 25.64 -3 27 C-3.66 27 -4.32 27 -5 27 C-4.731875 25.88625 -4.46375 24.7725 -4.1875 23.625 C-2.44037737 15.81950967 -1.27717093 7.89291633 0 0 Z " fill="#2C837E" transform="translate(149,94)"/>
<path d="M0 0 C3.96 0.33 7.92 0.66 12 1 C12 1.66 12 2.32 12 3 C13.423125 2.9690625 13.423125 2.9690625 14.875 2.9375 C18 3 18 3 20 4 C20 4.66 20 5.32 20 6 C19.44054687 5.86722656 18.88109375 5.73445313 18.3046875 5.59765625 C10.90649974 3.96815187 3.55429188 3.41363558 -4 3 C-2.68 2.67 -1.36 2.34 0 2 C0 1.34 0 0.68 0 0 Z " fill="#338883" transform="translate(100,44)"/>
<path d="M0 0 C1.8125 0.125 1.8125 0.125 4 1 C7.37199589 6.12283992 7.37093718 10.47678908 7.1875 16.375 C7.17396484 17.20644531 7.16042969 18.03789062 7.14648438 18.89453125 C7.11139059 20.92997066 7.05759228 22.96507291 7 25 C6.34 24.67 5.68 24.34 5 24 C5.04640625 23.24976563 5.0928125 22.49953125 5.140625 21.7265625 C5.43735116 13.31225645 3.72074699 7.44149399 0 0 Z " fill="#DEFAFA" transform="translate(152,162)"/>
<path d="M0 0 C0.99 0.33 1.98 0.66 3 1 C3.18451025 14.6332574 3.18451025 14.6332574 2 21 C1.67 21 1.34 21 1 21 C0.07907719 16.34462644 -0.12205997 11.85314567 -0.0625 7.125 C-0.05798828 6.43664062 -0.05347656 5.74828125 -0.04882812 5.0390625 C-0.03716336 3.35933665 -0.01923271 1.67965625 0 0 Z " fill="#1D7E7D" transform="translate(149,79)"/>
<path d="M0 0 C0.33 0.99 0.66 1.98 1 3 C-2.17530109 5.72168665 -4.94254825 7.85559053 -9 9 C-10.32 8.67 -11.64 8.34 -13 8 C-8.71 5.36 -4.42 2.72 0 0 Z " fill="#2D8581" transform="translate(115,159)"/>
<path d="M0 0 C7.92 3.96 7.92 3.96 16 8 C16 8.33 16 8.66 16 9 C11.24792529 9.43200679 8.21789302 7.98489083 4 6 C4 5.34 4 4.68 4 4 C2.68 3.34 1.36 2.68 0 2 C0 1.34 0 0.68 0 0 Z " fill="#318384" transform="translate(176,45)"/>
<path d="M0 0 C1.98 0.99 1.98 0.99 4 2 C3.67 2.33 3.34 2.66 3 3 C4.80252869 3.70194993 4.80252869 3.70194993 7 4 C7.66 3.67 8.32 3.34 9 3 C11.49092811 1.75453595 12.41080733 2.2232422 15 3 C7.9452954 7.07877462 7.9452954 7.07877462 4 6.75 C3.34 6.5025 2.68 6.255 2 6 C1.34 4.02 0.68 2.04 0 0 Z " fill="#2B5F5B" transform="translate(43,185)"/>
<path d="M0 0 C0.33 0 0.66 0 1 0 C2.45988598 9.0583287 2.45988598 9.0583287 0.6875 12.6875 C0.130625 13.450625 -0.42625 14.21375 -1 15 C-1.72166191 17.31691454 -2.40059529 19.64848923 -3 22 C-3.66 22 -4.32 22 -5 22 C-4.72285156 20.91460937 -4.44570312 19.82921875 -4.16015625 18.7109375 C-3.7941437 17.26565719 -3.4282654 15.82034288 -3.0625 14.375 C-2.88009766 13.66214844 -2.69769531 12.94929688 -2.50976562 12.21484375 C-1.48683201 8.16030687 -0.62042633 4.14052941 0 0 Z " fill="#CFF2F2" transform="translate(138,98)"/>
<path d="M0 0 C0.33 0 0.66 0 1 0 C1.43112315 4.91480393 1.49648044 7.88224653 -1.375 12 C-2.24125 12.99 -3.1075 13.98 -4 15 C-4.66 15 -5.32 15 -6 15 C-4.40109514 9.80355921 -2.25861997 4.93387858 0 0 Z " fill="#2D8481" transform="translate(143,121)"/>
<path d="M0 0 C6.29722557 1.39938346 12.06084316 3.49289691 18 6 C18 6.33 18 6.66 18 7 C13.05334733 7.35333233 10.31895786 6.33943551 6 4 C4.01132287 3.30028027 2.01391949 2.62335603 0 2 C0 1.34 0 0.68 0 0 Z " fill="#2E8580" transform="translate(118,39)"/>
<path d="M0 0 C3.7961351 1.26537837 4.15494755 2.55055411 6 6 C6.391875 6.61875 6.78375 7.2375 7.1875 7.875 C8.3564174 10.93216858 8.12449831 13.76304407 8 17 C5.5147383 14.5147383 5.38968944 12.30542951 4.640625 8.96484375 C3.76034017 6.26494577 2.07783835 4.87005451 0 3 C0 2.01 0 1.02 0 0 Z " fill="#2B8180" transform="translate(134,170)"/>
<path d="M0 0 C2.5 2 2.5 2 5 5 C5.49833185 10.14942917 4.84747519 14.91514887 4 20 C3.67 20 3.34 20 3 20 C2.92652344 18.46279297 2.92652344 18.46279297 2.8515625 16.89453125 C2.77648929 15.5338294 2.70094345 14.17315356 2.625 12.8125 C2.57859375 11.80219727 2.57859375 11.80219727 2.53125 10.77148438 C2.29896078 6.80321025 1.71612524 3.59270121 0 0 Z " fill="#3D8884" transform="translate(113,19)"/>
<path d="M0 0 C0.99 0 1.98 0 3 0 C2.67 0.99 2.34 1.98 2 3 C1.77674186 5.05893621 1.59294241 7.12233653 1.4375 9.1875 C1.35371094 10.27417969 1.26992188 11.36085938 1.18359375 12.48046875 C1.12300781 13.31191406 1.06242187 14.14335938 1 15 C-1 13 -1 13 -1.23046875 10.21484375 C-1.21628906 9.13332031 -1.20210937 8.05179688 -1.1875 6.9375 C-1.18105469 5.85339844 -1.17460938 4.76929687 -1.16796875 3.65234375 C-1 1 -1 1 0 0 Z " fill="#3B6764" transform="translate(62,85)"/>
<path d="M0 0 C-3.01447835 2.57075841 -5.35979771 3.52207066 -9.25 4.1875 C-10.58804688 4.42533203 -10.58804688 4.42533203 -11.953125 4.66796875 C-12.96632813 4.83232422 -12.96632813 4.83232422 -14 5 C-10.40034037 1.10492757 -5.33400457 -2.34696201 0 0 Z " fill="#DAF2F2" transform="translate(80,168)"/>
<path d="M0 0 C1.68156755 2.52235132 3.16468006 5.03586642 4.625 7.6875 C5.07101563 8.49574219 5.51703125 9.30398437 5.9765625 10.13671875 C6.31429687 10.75160156 6.65203125 11.36648437 7 12 C5.35 12 3.7 12 2 12 C2.33 10.68 2.66 9.36 3 8 C2.01 8 1.02 8 0 8 C0 5.36 0 2.72 0 0 Z " fill="#328B82" transform="translate(120,64)"/>
<path d="M0 0 C0 0.66 0 1.32 0 2 C-0.66 2 -1.32 2 -2 2 C-2.19335938 2.60328125 -2.38671875 3.2065625 -2.5859375 3.828125 C-2.84632812 4.62734375 -3.10671875 5.4265625 -3.375 6.25 C-3.63023438 7.03890625 -3.88546875 7.8278125 -4.1484375 8.640625 C-4.95173667 10.86627958 -5.89711662 12.90931672 -7 15 C-7.48279288 10.17207121 -7.82060585 6.34532299 -4.625 2.4375 C-2 0 -2 0 0 0 Z " fill="#2F5F5E" transform="translate(89,18)"/>
<path d="M0 0 C3.35620271 1.38877354 5.07298728 2.91677965 7 6 C7 6.66 7 7.32 7 8 C8.32 8.66 9.64 9.32 11 10 C9.35 10 7.7 10 6 10 C6 9.34 6 8.68 6 8 C5.34 8 4.68 8 4 8 C4 6.68 4 5.36 4 4 C2.68 3.67 1.36 3.34 0 3 C0 2.01 0 1.02 0 0 Z " fill="#398987" transform="translate(102,9)"/>
<path d="M0 0 C0.33 0 0.66 0 1 0 C1.3690205 10.55808656 1.3690205 10.55808656 -1 15 C-1.33 15 -1.66 15 -2 15 C-1.85973717 12.68715544 -1.71264442 10.37472409 -1.5625 8.0625 C-1.48128906 6.77472656 -1.40007812 5.48695313 -1.31640625 4.16015625 C-1 1 -1 1 0 0 Z " fill="#398E86" transform="translate(157,174)"/>
<path d="M0 0 C0.99 1.32 1.98 2.64 3 4 C3.5775 3.649375 4.155 3.29875 4.75 2.9375 C7.39786506 1.83422289 8.33185326 2.19843491 11 3 C9.38007835 3.86375896 7.75388139 4.71575854 6.125 5.5625 C4.76761719 6.27599609 4.76761719 6.27599609 3.3828125 7.00390625 C2.59648438 7.33261719 1.81015625 7.66132813 1 8 C0.34 7.67 -0.32 7.34 -1 7 C-0.67 4.69 -0.34 2.38 0 0 Z " fill="#368683" transform="translate(100,172)"/>
<path d="M0 0 C0.99 0.33 1.98 0.66 3 1 C0.19195732 3.96404505 -2.18315774 6.44499019 -6 8 C-6.33 6.35 -6.66 4.7 -7 3 C-4.03 3.495 -4.03 3.495 -1 4 C-0.67 2.68 -0.34 1.36 0 0 Z " fill="#268276" transform="translate(107,148)"/>
<path d="M0 0 C1.65 0 3.3 0 5 0 C4.67 4.95 4.34 9.9 4 15 C3.67 15 3.34 15 3 15 C3 11.04 3 7.08 3 3 C1.68 2.34 0.36 1.68 -1 1 C-0.67 0.67 -0.34 0.34 0 0 Z " fill="#237878" transform="translate(97,8)"/>
<path d="M0 0 C1.18771723 3.42943519 0.80226223 5.37784675 -0.4375 8.75 C-0.72496094 9.54921875 -1.01242188 10.3484375 -1.30859375 11.171875 C-1.53675781 11.77515625 -1.76492187 12.3784375 -2 13 C-2.99 12.01 -3.98 11.02 -5 10 C-3.66511872 6.40608886 -2.03977277 3.24509304 0 0 Z " fill="#D5F4F6" transform="translate(146,139)"/>
<path d="M0 0 C1.10773342 3.32320026 0.93312508 4.69164744 0 8 C-0.66 8.66 -1.32 9.32 -2 10 C-2.99 11.485 -2.99 11.485 -4 13 C-4.66 13 -5.32 13 -6 13 C-4.31326082 8.50202887 -2.18326108 4.27113698 0 0 Z " fill="#D3F0F0" transform="translate(132,121)"/>
<path d="M0 0 C0.79921875 0.01804688 1.5984375 0.03609375 2.421875 0.0546875 C3.02515625 0.07789063 3.6284375 0.10109375 4.25 0.125 C1.39415227 2.02889849 -0.6811762 2.81962177 -3.9375 3.75 C-4.83855469 4.01039062 -5.73960938 4.27078125 -6.66796875 4.5390625 C-7.69857422 4.82910156 -7.69857422 4.82910156 -8.75 5.125 C-8.75 4.135 -8.75 3.145 -8.75 2.125 C-5.68753253 0.34090198 -3.52920727 -0.10380021 0 0 Z " fill="#275756" transform="translate(79.75,47.875)"/>
<path d="M0 0 C0.99 0.33 1.98 0.66 3 1 C1.02 4.96 -0.96 8.92 -3 13 C-4.08644535 8.6542186 -3.90680911 8.05039452 -2.0625 4.25 C-1.68222656 3.45078125 -1.30195313 2.6515625 -0.91015625 1.828125 C-0.60980469 1.22484375 -0.30945313 0.6215625 0 0 Z " fill="#D2F4F5" transform="translate(140,123)"/>
<path d="M0 0 C1.11375 0.3403125 1.11375 0.3403125 2.25 0.6875 C2.25 1.0175 2.25 1.3475 2.25 1.6875 C1.68410156 1.79707031 1.11820313 1.90664062 0.53515625 2.01953125 C-0.56505859 2.25736328 -0.56505859 2.25736328 -1.6875 2.5 C-2.41839844 2.65082031 -3.14929688 2.80164063 -3.90234375 2.95703125 C-4.51207031 3.19808594 -5.12179688 3.43914062 -5.75 3.6875 C-6.08 4.6775 -6.41 5.6675 -6.75 6.6875 C-8.4 6.6875 -10.05 6.6875 -11.75 6.6875 C-10.08784732 5.34854368 -8.42036393 4.01619858 -6.75 2.6875 C-6.09 2.089375 -5.43 1.49125 -4.75 0.875 C-2.75 -0.3125 -2.75 -0.3125 0 0 Z " fill="#CAF3F4" transform="translate(123.75,167.3125)"/>
<path d="M0 0 C1.5994614 3.19892281 2.42595236 5.35462576 3.125 8.75 C3.29257812 9.54921875 3.46015625 10.3484375 3.6328125 11.171875 C3.81457031 12.07679687 3.81457031 12.07679687 4 13 C3.34 13 2.68 13 2 13 C2 12.01 2 11.02 2 10 C1.34 10 0.68 10 0 10 C0 6.7 0 3.4 0 0 Z " fill="#C8E2E1" transform="translate(42,110)"/>
<path d="M0 0 C-0.33 0.99 -0.66 1.98 -1 3 C-1.7425 3.144375 -2.485 3.28875 -3.25 3.4375 C-5.52027739 3.90187492 -7.75759479 4.41863569 -10 5 C-9 2 -9 2 -7.25 0.8125 C-4.70039426 -0.10819096 -2.69076919 -0.14948718 0 0 Z " fill="#2C837D" transform="translate(152,41)"/>
<path d="M0 0 C-0.33 0.99 -0.66 1.98 -1 3 C-3.31 2.67 -5.62 2.34 -8 2 C-8 1.34 -8 0.68 -8 0 C-2.25 -1.125 -2.25 -1.125 0 0 Z " fill="#388986" transform="translate(155,189)"/>
<path d="M0 0 C2.875 -0.1875 2.875 -0.1875 6 0 C6.66 0.99 7.32 1.98 8 3 C7.67 3.99 7.34 4.98 7 6 C5.83054208 5.19152271 4.66449539 4.37810888 3.5 3.5625 C2.8503125 3.11003906 2.200625 2.65757812 1.53125 2.19140625 C1.0259375 1.79824219 0.520625 1.40507812 0 1 C0 0.67 0 0.34 0 0 Z " fill="#2D5D5C" transform="translate(80,168)"/>
<path d="M0 0 C0.33 0.99 0.66 1.98 1 3 C-0.21484375 4.82421875 -0.21484375 4.82421875 -1.9375 6.6875 C-2.50339844 7.31011719 -3.06929687 7.93273437 -3.65234375 8.57421875 C-4.09707031 9.04472656 -4.54179687 9.51523438 -5 10 C-5.66 9.01 -6.32 8.02 -7 7 C-4.66666667 4.66666667 -2.33333333 2.33333333 0 0 Z " fill="#308885" transform="translate(199,58)"/>
<path d="M0 0 C0.33 0.66 0.66 1.32 1 2 C-0.125 4.5625 -0.125 4.5625 -2 7 C-4.6875 7.8125 -4.6875 7.8125 -7 8 C-6.02133662 6.85373678 -5.04205413 5.70800212 -4.0625 4.5625 C-3.51722656 3.92441406 -2.97195312 3.28632813 -2.41015625 2.62890625 C-1.63204305 1.73008851 -0.84063472 0.84063472 0 0 Z " fill="#CDEEF0" transform="translate(122,138)"/>
<path d="M0 0 C0.66 0 1.32 0 2 0 C2.1875 2.375 2.1875 2.375 2 5 C1.01 5.66 0.02 6.32 -1 7 C-1.99 6.67 -2.98 6.34 -4 6 C-2.7260411 3.96166576 -1.38938077 1.96147874 0 0 Z " fill="#245C5A" transform="translate(77,69)"/>
<path d="M0 0 C0.33 0.99 0.66 1.98 1 3 C-0.09283577 4.03295436 -1.19970579 5.05107835 -2.3125 6.0625 C-2.92738281 6.63097656 -3.54226562 7.19945313 -4.17578125 7.78515625 C-4.77777344 8.18605469 -5.37976563 8.58695313 -6 9 C-6.99 8.67 -7.98 8.34 -9 8 C-7.88625 7.13375 -7.88625 7.13375 -6.75 6.25 C-4.33912357 4.27746474 -2.15957299 2.23955718 0 0 Z " fill="#C8EEEE" transform="translate(196,64)"/>
<path d="M0 0 C2.3125 1.5625 2.3125 1.5625 4 3 C-0.34464536 2.39174965 -4.67551867 1.73832608 -9 1 C-5.64846558 -1.11022538 -3.75933548 -1.22178403 0 0 Z " fill="#2B8881" transform="translate(171,42)"/>
<path d="M0 0 C7.42857143 -0.28571429 7.42857143 -0.28571429 11 2 C10.34 2.66 9.68 3.32 9 4 C7.88625 3.505 7.88625 3.505 6.75 3 C3.86116688 1.77217129 3.86116688 1.77217129 0 2 C0 1.34 0 0.68 0 0 Z " fill="#328485" transform="translate(120,166)"/>
<path d="M0 0 C1.33332095 2.6666419 0.67102033 4.16680303 0 7 C-1.98 7.33 -3.96 7.66 -6 8 C-4.02 5.36 -2.04 2.72 0 0 Z " fill="#2B6561" transform="translate(56,151)"/>
<path d="M0 0 C2.31 0.33 4.62 0.66 7 1 C7 1.99 7 2.98 7 4 C4.69 3.67 2.38 3.34 0 3 C0 2.01 0 1.02 0 0 Z " fill="#348683" transform="translate(112,59)"/>
<path d="M0 0 C4.24223102 -0.3636198 6.58168085 0.4606772 10 3 C10 3.66 10 4.32 10 5 C6.08788267 3.84414715 3.1254959 2.64465038 0 0 Z " fill="#CFF3F2" transform="translate(171,42)"/>
<path d="M0 0 C0.99 0.33 1.98 0.66 3 1 C2.34 3.31 1.68 5.62 1 8 C-1 5 -1 5 -2 2 C-1.34 2 -0.68 2 0 2 C0 1.34 0 0.68 0 0 Z " fill="#225354" transform="translate(58,178)"/>
<path d="M0 0 C0.75 1.6875 0.75 1.6875 1 4 C-0.9375 6.75 -0.9375 6.75 -3 9 C-3.99 8.67 -4.98 8.34 -6 8 C-5.01 7.34 -4.02 6.68 -3 6 C-2.27840576 4.35636866 -1.60648579 2.68949614 -1 1 C-0.67 0.67 -0.34 0.34 0 0 Z " fill="#E2F8F9" transform="translate(199,61)"/>
<path d="M0 0 C0.99 0.2165625 0.99 0.2165625 2 0.4375 C5.65599551 1.12299916 9.30622195 1.56175515 13 2 C13 2.33 13 2.66 13 3 C11.39667209 3.08121924 9.79215974 3.13929134 8.1875 3.1875 C7.29417969 3.22230469 6.40085937 3.25710937 5.48046875 3.29296875 C2.58352485 2.95081002 1.77444972 2.24606427 0 0 Z " fill="#36635F" transform="translate(9,69)"/>
<path d="M0 0 C3.96 1.98 3.96 1.98 8 4 C8 4.33 8 4.66 8 5 C6.02 5 4.04 5 2 5 C1.34 3.35 0.68 1.7 0 0 Z " fill="#D9FDF9" transform="translate(141,187)"/>
<path d="M0 0 C0.66 0.33 1.32 0.66 2 1 C0.35 3.64 -1.3 6.28 -3 9 C-3.33 7.68 -3.66 6.36 -4 5 C-3.34 5 -2.68 5 -2 5 C-1.7834375 4.0409375 -1.7834375 4.0409375 -1.5625 3.0625 C-1 1 -1 1 0 0 Z " fill="#D6EFEE" transform="translate(49,157)"/>
<path d="M0 0 C0.66 0 1.32 0 2 0 C2.33 0.99 2.66 1.98 3 3 C4.49985609 4.66710346 4.49985609 4.66710346 6 6 C5.67 6.66 5.34 7.32 5 8 C4.34 8 3.68 8 3 8 C2.01 5.36 1.02 2.72 0 0 Z " fill="#225654" transform="translate(66,117)"/>
<path d="M0 0 C0.33 0.99 0.66 1.98 1 3 C-2.3 2.34 -5.6 1.68 -9 1 C-4.82091936 -1.08954032 -4.19589427 -1.16552619 0 0 Z " fill="#D3F3F5" transform="translate(117,57)"/>
<path d="M0 0 C-3.96 1.98 -3.96 1.98 -8 4 C-7.67 2.68 -7.34 1.36 -7 0 C-3.98968256 -0.93423645 -3.13349732 -1.04449911 0 0 Z " fill="#DDF3EE" transform="translate(24,45)"/>
</svg>
